solid STL generated by MeshLab
  facet normal -1.169263e-003 9.998978e-001 1.425128e-002
    outer loop
      vertex  -5.113009e-002 2.044913e-001 -4.958160e-002
      vertex  5.930576e-002 2.044873e-001 -4.024057e-002
      vertex  2.285034e-003 2.048685e-001 -7.166892e-002
    endloop
  endfacet
  facet normal 1.085843e-004 9.999996e-001 -8.562315e-004
    outer loop
      vertex  5.486184e-002 2.045690e-001 5.468714e-002
      vertex  5.930576e-002 2.044873e-001 -4.024057e-002
      vertex  -5.113009e-002 2.044913e-001 -4.958160e-002
    endloop
  endfacet
  facet normal -3.774692e-001 -1.407607e-001 -9.152614e-001
    outer loop
      vertex  -8.813782e-002 -4.238888e-002 3.649415e-003
      vertex  -5.113009e-002 2.044913e-001 -4.958160e-002
      vertex  2.285034e-003 2.048685e-001 -7.166892e-002
    endloop
  endfacet
  facet normal 1.226574e-002 9.998375e-001 -1.321418e-002
    outer loop
      vertex  -6.158694e-002 2.058482e-001 4.338391e-002
      vertex  5.486184e-002 2.045690e-001 5.468714e-002
      vertex  -5.113009e-002 2.044913e-001 -4.958160e-002
    endloop
  endfacet
  facet normal 1.698635e-001 -2.333102e-001 -9.574512e-001
    outer loop
      vertex  2.285034e-003 2.048685e-001 -7.166892e-002
      vertex  9.025172e-002 -4.205019e-002 4.106213e-003
      vertex  1.810850e-003 -8.952959e-002 -1.457225e-005
    endloop
  endfacet
  facet normal 9.900913e-001 1.325954e-001 4.623572e-002
    outer loop
      vertex  9.025172e-002 -4.205019e-002 4.106213e-003
      vertex  5.930576e-002 2.044873e-001 -4.024057e-002
      vertex  5.486184e-002 2.045690e-001 5.468714e-002
    endloop
  endfacet
  facet normal -9.859252e-001 1.234919e-001 -1.127003e-001
    outer loop
      vertex  -5.113009e-002 2.044913e-001 -4.958160e-002
      vertex  -8.813782e-002 -4.238888e-002 3.649415e-003
      vertex  -6.158694e-002 2.058482e-001 4.338391e-002
    endloop
  endfacet
  facet normal 9.686775e-001 9.167262e-002 2.307817e-001
    outer loop
      vertex  6.287052e-002 -2.353041e-002 1.116789e-001
      vertex  9.025172e-002 -4.205019e-002 4.106213e-003
      vertex  5.486184e-002 2.045690e-001 5.468714e-002
    endloop
  endfacet
  facet normal 4.799550e-001 -9.660146e-002 -8.719583e-001
    outer loop
      vertex  2.285034e-003 2.048685e-001 -7.166892e-002
      vertex  5.930576e-002 2.044873e-001 -4.024057e-002
      vertex  9.025172e-002 -4.205019e-002 4.106213e-003
    endloop
  endfacet
  facet normal -1.612528e-001 -2.331486e-001 -9.589783e-001
    outer loop
      vertex  2.285034e-003 2.048685e-001 -7.166892e-002
      vertex  1.810850e-003 -8.952959e-002 -1.457225e-005
      vertex  -8.813782e-002 -4.238888e-002 3.649415e-003
    endloop
  endfacet
  facet normal 7.638926e-002 -4.383634e-001 8.955458e-001
    outer loop
      vertex  -6.372545e-002 -3.210147e-002 1.182819e-001
      vertex  3.815220e-002 -8.191688e-002 8.520755e-002
      vertex  6.287052e-002 -2.353041e-002 1.116789e-001
    endloop
  endfacet
  facet normal -8.301995e-002 4.215460e-001 9.029988e-001
    outer loop
      vertex  -6.158694e-002 2.058482e-001 4.338391e-002
      vertex  -5.045548e-004 2.568797e-002 1.331037e-001
      vertex  5.486184e-002 2.045690e-001 5.468714e-002
    endloop
  endfacet
  facet normal -4.514705e-001 -8.750222e-001 1.746727e-001
    outer loop
      vertex  -6.372545e-002 -3.210147e-002 1.182819e-001
      vertex  -8.813782e-002 -4.238888e-002 3.649415e-003
      vertex  1.810850e-003 -8.952959e-002 -1.457225e-005
    endloop
  endfacet
  facet normal -3.640582e-001 -9.010499e-001 2.357346e-001
    outer loop
      vertex  1.810850e-003 -8.952959e-002 -1.457225e-005
      vertex  3.815220e-002 -8.191688e-002 8.520755e-002
      vertex  -6.372545e-002 -3.210147e-002 1.182819e-001
    endloop
  endfacet
  facet normal 7.093860e-002 -3.199239e-001 9.447837e-001
    outer loop
      vertex  -6.372545e-002 -3.210147e-002 1.182819e-001
      vertex  6.287052e-002 -2.353041e-002 1.116789e-001
      vertex  -5.045548e-004 2.568797e-002 1.331037e-001
    endloop
  endfacet
  facet normal 4.738224e-001 -8.718217e-001 -1.241746e-001
    outer loop
      vertex  3.815220e-002 -8.191688e-002 8.520755e-002
      vertex  1.810850e-003 -8.952959e-002 -1.457225e-005
      vertex  9.025172e-002 -4.205019e-002 4.106213e-003
    endloop
  endfacet
  facet normal -4.482982e-001 2.720447e-001 8.514813e-001
    outer loop
      vertex  -6.372545e-002 -3.210147e-002 1.182819e-001
      vertex  -5.045548e-004 2.568797e-002 1.331037e-001
      vertex  -6.158694e-002 2.058482e-001 4.338391e-002
    endloop
  endfacet
  facet normal 8.254555e-001 -4.823729e-001 2.931545e-001
    outer loop
      vertex  6.287052e-002 -2.353041e-002 1.116789e-001
      vertex  3.815220e-002 -8.191688e-002 8.520755e-002
      vertex  9.025172e-002 -4.205019e-002 4.106213e-003
    endloop
  endfacet
  facet normal -9.768137e-001 7.221742e-002 2.015433e-001
    outer loop
      vertex  -8.813782e-002 -4.238888e-002 3.649415e-003
      vertex  -6.372545e-002 -3.210147e-002 1.182819e-001
      vertex  -6.158694e-002 2.058482e-001 4.338391e-002
    endloop
  endfacet
  facet normal 4.670758e-001 2.297379e-001 8.538505e-001
    outer loop
      vertex  5.486184e-002 2.045690e-001 5.468714e-002
      vertex  -5.045548e-004 2.568797e-002 1.331037e-001
      vertex  6.287052e-002 -2.353041e-002 1.116789e-001
    endloop
  endfacet
endsolid vcg
