solid STL generated by MeshLab
  facet normal 4.101295e-001 8.971705e-001 -1.639477e-001
    outer loop
      vertex  5.547847e-003 1.043653e-001 1.918825e-001
      vertex  5.050005e-002 4.923999e-002 2.671974e-003
      vertex  8.070440e-003 6.813510e-002 -6.977812e-005
    endloop
  endfacet
  facet normal -9.601378e-001 -1.373603e-001 -2.434494e-001
    outer loop
      vertex  -5.779856e-002 -3.276414e-002 6.178086e-002
      vertex  -5.366940e-002 4.862294e-002 -4.247113e-004
      vertex  -3.614737e-002 -5.413588e-002 -1.155057e-002
    endloop
  endfacet
  facet normal -9.981694e-001 5.938791e-002 1.144281e-002
    outer loop
      vertex  -4.923959e-002 7.699918e-002 2.387204e-001
      vertex  -5.366940e-002 4.862294e-002 -4.247113e-004
      vertex  -5.779856e-002 -3.276414e-002 6.178086e-002
    endloop
  endfacet
  facet normal -3.462911e-001 -8.245075e-001 4.475152e-001
    outer loop
      vertex  -1.504847e-002 5.963628e-002 2.651009e-001
      vertex  -5.779856e-002 -3.276414e-002 6.178086e-002
      vertex  1.336558e-002 -7.113614e-002 4.615123e-002
    endloop
  endfacet
  facet normal -2.954273e-001 9.380743e-001 -1.809404e-001
    outer loop
      vertex  -5.366940e-002 4.862294e-002 -4.247113e-004
      vertex  5.547847e-003 1.043653e-001 1.918825e-001
      vertex  8.070440e-003 6.813510e-002 -6.977812e-005
    endloop
  endfacet
  facet normal -6.482325e-001 -6.326097e-001 4.237919e-001
    outer loop
      vertex  -5.779856e-002 -3.276414e-002 6.178086e-002
      vertex  -1.504847e-002 5.963628e-002 2.651009e-001
      vertex  -4.923959e-002 7.699918e-002 2.387204e-001
    endloop
  endfacet
  facet normal -1.511270e-001 7.243766e-001 6.726360e-001
    outer loop
      vertex  -1.504847e-002 5.963628e-002 2.651009e-001
      vertex  4.736669e-002 7.461141e-002 2.629972e-001
      vertex  -4.923959e-002 7.699918e-002 2.387204e-001
    endloop
  endfacet
  facet normal 9.708461e-001 -1.806187e-001 1.575909e-001
    outer loop
      vertex  6.242867e-002 -2.760940e-002 5.304950e-002
      vertex  7.379085e-002 -1.360539e-002 -8.973955e-004
      vertex  4.736669e-002 7.461141e-002 2.629972e-001
    endloop
  endfacet
  facet normal 3.391564e-001 -7.828390e-001 -5.216666e-001
    outer loop
      vertex  7.379085e-002 -1.360539e-002 -8.973955e-004
      vertex  1.336558e-002 -7.113614e-002 4.615123e-002
      vertex  -3.614737e-002 -5.413588e-002 -1.155057e-002
    endloop
  endfacet
  facet normal 2.156846e-001 -8.257416e-001 5.211824e-001
    outer loop
      vertex  1.336558e-002 -7.113614e-002 4.615123e-002
      vertex  4.736669e-002 7.461141e-002 2.629972e-001
      vertex  -1.504847e-002 5.963628e-002 2.651009e-001
    endloop
  endfacet
  facet normal 6.504630e-001 7.566723e-001 -6.591645e-002
    outer loop
      vertex  5.050005e-002 4.923999e-002 2.671974e-003
      vertex  5.547847e-003 1.043653e-001 1.918825e-001
      vertex  4.736669e-002 7.461141e-002 2.629972e-001
    endloop
  endfacet
  facet normal -5.069771e-001 8.570036e-001 -9.229849e-002
    outer loop
      vertex  -4.923959e-002 7.699918e-002 2.387204e-001
      vertex  5.547847e-003 1.043653e-001 1.918825e-001
      vertex  -5.366940e-002 4.862294e-002 -4.247113e-004
    endloop
  endfacet
  facet normal -8.497036e-002 9.003987e-001 4.266874e-001
    outer loop
      vertex  -4.923959e-002 7.699918e-002 2.387204e-001
      vertex  4.736669e-002 7.461141e-002 2.629972e-001
      vertex  5.547847e-003 1.043653e-001 1.918825e-001
    endloop
  endfacet
  facet normal -4.494569e-001 -8.845022e-001 1.250770e-001
    outer loop
      vertex  1.336558e-002 -7.113614e-002 4.615123e-002
      vertex  -5.779856e-002 -3.276414e-002 6.178086e-002
      vertex  -3.614737e-002 -5.413588e-002 -1.155057e-002
    endloop
  endfacet
  facet normal 9.370151e-001 3.485510e-001 -2.269172e-002
    outer loop
      vertex  5.050005e-002 4.923999e-002 2.671974e-003
      vertex  4.736669e-002 7.461141e-002 2.629972e-001
      vertex  7.379085e-002 -1.360539e-002 -8.973955e-004
    endloop
  endfacet
  facet normal 6.668463e-001 -7.433427e-001 -5.251364e-002
    outer loop
      vertex  6.242867e-002 -2.760940e-002 5.304950e-002
      vertex  1.336558e-002 -7.113614e-002 4.615123e-002
      vertex  7.379085e-002 -1.360539e-002 -8.973955e-004
    endloop
  endfacet
  facet normal -2.685969e-002 1.030755e-001 -9.943108e-001
    outer loop
      vertex  -3.614737e-002 -5.413588e-002 -1.155057e-002
      vertex  -5.366940e-002 4.862294e-002 -4.247113e-004
      vertex  8.070440e-003 6.813510e-002 -6.977812e-005
    endloop
  endfacet
  facet normal 5.798332e-001 -7.153784e-001 3.899066e-001
    outer loop
      vertex  1.336558e-002 -7.113614e-002 4.615123e-002
      vertex  6.242867e-002 -2.760940e-002 5.304950e-002
      vertex  4.736669e-002 7.461141e-002 2.629972e-001
    endloop
  endfacet
  facet normal 9.112092e-002 6.038083e-002 -9.940076e-001
    outer loop
      vertex  -3.614737e-002 -5.413588e-002 -1.155057e-002
      vertex  8.070440e-003 6.813510e-002 -6.977812e-005
      vertex  5.050005e-002 4.923999e-002 2.671974e-003
    endloop
  endfacet
  facet normal 6.646302e-002 8.111440e-002 -9.944863e-001
    outer loop
      vertex  -3.614737e-002 -5.413588e-002 -1.155057e-002
      vertex  5.050005e-002 4.923999e-002 2.671974e-003
      vertex  7.379085e-002 -1.360539e-002 -8.973955e-004
    endloop
  endfacet
endsolid vcg
