solid STL generated by MeshLab
  facet normal 4.368227e-003 -2.103376e-002 -9.997693e-001
    outer loop
      vertex  -7.539626e-002 -1.270625e-002 1.161976e-003
      vertex  -1.746908e-002 5.552120e-002 -2.033775e-005
      vertex  -1.187165e-003 -9.777344e-002 3.275909e-003
    endloop
  endfacet
  facet normal -9.444923e-003 -2.249946e-002 -9.997023e-001
    outer loop
      vertex  -1.187165e-003 -9.777344e-002 3.275909e-003
      vertex  -1.746908e-002 5.552120e-002 -2.033775e-005
      vertex  7.088490e-002 1.531170e-002 4.987850e-005
    endloop
  endfacet
  facet normal 8.600623e-002 -7.592118e-001 6.451359e-001
    outer loop
      vertex  -3.922363e-002 2.136907e-003 1.259237e-001
      vertex  -1.187165e-003 -9.777344e-002 3.275909e-003
      vertex  5.246243e-002 -3.444131e-002 7.065442e-002
    endloop
  endfacet
  facet normal 5.184690e-001 -7.652848e-001 -3.814825e-001
    outer loop
      vertex  -3.922363e-002 2.136907e-003 1.259237e-001
      vertex  4.685937e-002 7.266556e-002 1.014321e-001
      vertex  6.000157e-002 1.239393e-003 2.625801e-001
    endloop
  endfacet
  facet normal 4.344742e-001 -2.276812e-001 8.714318e-001
    outer loop
      vertex  5.246243e-002 -3.444131e-002 7.065442e-002
      vertex  4.685937e-002 7.266556e-002 1.014321e-001
      vertex  -3.922363e-002 2.136907e-003 1.259237e-001
    endloop
  endfacet
  facet normal -9.585953e-001 1.023155e-001 2.657565e-001
    outer loop
      vertex  -3.922363e-002 2.136907e-003 1.259237e-001
      vertex  -4.388786e-002 7.020306e-002 8.289432e-002
      vertex  -7.539626e-002 -1.270625e-002 1.161976e-003
    endloop
  endfacet
  facet normal -9.761432e-001 -1.598106e-001 -1.469864e-001
    outer loop
      vertex  -3.922363e-002 2.136907e-003 1.259237e-001
      vertex  -6.025031e-002 1.919873e-003 2.657988e-001
      vertex  -4.388786e-002 7.020306e-002 8.289432e-002
    endloop
  endfacet
  facet normal -7.258225e-001 -6.260971e-001 2.849285e-001
    outer loop
      vertex  -7.539626e-002 -1.270625e-002 1.161976e-003
      vertex  -1.187165e-003 -9.777344e-002 3.275909e-003
      vertex  -3.922363e-002 2.136907e-003 1.259237e-001
    endloop
  endfacet
  facet normal 8.357637e-003 9.851015e-001 -1.717709e-001
    outer loop
      vertex  4.685937e-002 7.266556e-002 1.014321e-001
      vertex  -1.746908e-002 5.552120e-002 -2.033775e-005
      vertex  -4.388786e-002 7.020306e-002 8.289432e-002
    endloop
  endfacet
  facet normal 3.826160e-001 8.400663e-001 -3.845695e-001
    outer loop
      vertex  -1.746908e-002 5.552120e-002 -2.033775e-005
      vertex  4.685937e-002 7.266556e-002 1.014321e-001
      vertex  7.088490e-002 1.531170e-002 4.987850e-005
    endloop
  endfacet
  facet normal 8.304327e-001 -5.338056e-001 -1.594772e-001
    outer loop
      vertex  7.088490e-002 1.531170e-002 4.987850e-005
      vertex  5.246243e-002 -3.444131e-002 7.065442e-002
      vertex  -1.187165e-003 -9.777344e-002 3.275909e-003
    endloop
  endfacet
  facet normal -7.206103e-001 6.059818e-001 -3.369077e-001
    outer loop
      vertex  -7.539626e-002 -1.270625e-002 1.161976e-003
      vertex  -4.388786e-002 7.020306e-002 8.289432e-002
      vertex  -1.746908e-002 5.552120e-002 -2.033775e-005
    endloop
  endfacet
  facet normal 9.705161e-001 -1.829279e-002 2.403413e-001
    outer loop
      vertex  7.088490e-002 1.531170e-002 4.987850e-005
      vertex  4.685937e-002 7.266556e-002 1.014321e-001
      vertex  5.246243e-002 -3.444131e-002 7.065442e-002
    endloop
  endfacet
  facet normal 9.715766e-001 2.353908e-001 2.509746e-002
    outer loop
      vertex  4.685937e-002 7.266556e-002 1.014321e-001
      vertex  3.316729e-002 1.150474e-001 2.339796e-001
      vertex  6.000157e-002 1.239393e-003 2.625801e-001
    endloop
  endfacet
  facet normal -5.723239e-003 -9.999807e-001 -2.411939e-003
    outer loop
      vertex  -3.922363e-002 2.136907e-003 1.259237e-001
      vertex  6.000157e-002 1.239393e-003 2.625801e-001
      vertex  -6.025031e-002 1.919873e-003 2.657988e-001
    endloop
  endfacet
  facet normal -9.589321e-001 2.829407e-001 1.984430e-002
    outer loop
      vertex  -6.025031e-002 1.919873e-003 2.657988e-001
      vertex  -3.187147e-002 9.816902e-002 2.648201e-001
      vertex  -4.388786e-002 7.020306e-002 8.289432e-002
    endloop
  endfacet
  facet normal 3.425688e-001 3.041564e-001 8.888957e-001
    outer loop
      vertex  3.316729e-002 1.150474e-001 2.339796e-001
      vertex  -3.187147e-002 9.816902e-002 2.648201e-001
      vertex  6.000157e-002 1.239393e-003 2.625801e-001
    endloop
  endfacet
  facet normal -3.043616e-001 9.443117e-001 -1.250580e-001
    outer loop
      vertex  -4.388786e-002 7.020306e-002 8.289432e-002
      vertex  -3.187147e-002 9.816902e-002 2.648201e-001
      vertex  3.316729e-002 1.150474e-001 2.339796e-001
    endloop
  endfacet
  facet normal 3.563362e-002 9.529508e-001 -3.010234e-001
    outer loop
      vertex  4.685937e-002 7.266556e-002 1.014321e-001
      vertex  -4.388786e-002 7.020306e-002 8.289432e-002
      vertex  3.316729e-002 1.150474e-001 2.339796e-001
    endloop
  endfacet
  facet normal 2.676935e-002 2.272244e-003 9.996390e-001
    outer loop
      vertex  -6.025031e-002 1.919873e-003 2.657988e-001
      vertex  6.000157e-002 1.239393e-003 2.625801e-001
      vertex  -3.187147e-002 9.816902e-002 2.648201e-001
    endloop
  endfacet
endsolid vcg
