solid STL generated by MeshLab
  facet normal -9.154428e-001 4.024433e-001 1.990239e-003
    outer loop
      vertex  -5.575239e-002 6.780010e-002 2.057098e-004
      vertex  -8.776436e-002 -5.015916e-003 -2.059886e-004
      vertex  -8.940536e-002 -9.955022e-003 2.437210e-001
    endloop
  endfacet
  facet normal -8.789542e-001 -4.766523e-001 -1.556448e-002
    outer loop
      vertex  -8.776436e-002 -5.015916e-003 -2.059886e-004
      vertex  -5.252193e-002 -6.965020e-002 -1.102589e-002
      vertex  -8.940536e-002 -9.955022e-003 2.437210e-001
    endloop
  endfacet
  facet normal -2.166699e-002 9.513988e-001 3.071983e-001
    outer loop
      vertex  -4.935375e-002 -4.764287e-003 2.922619e-001
      vertex  4.010314e-002 -2.477345e-003 2.914886e-001
      vertex  1.307211e-002 9.133872e-002 -9.680089e-004
    endloop
  endfacet
  facet normal 6.681935e-001 7.382127e-001 9.251761e-002
    outer loop
      vertex  8.723805e-002 2.395671e-002 1.032257e-003
      vertex  1.307211e-002 9.133872e-002 -9.680089e-004
      vertex  8.729701e-002 -6.541368e-003 2.439555e-001
    endloop
  endfacet
  facet normal 3.386427e-001 9.045997e-001 2.588833e-001
    outer loop
      vertex  1.307211e-002 9.133872e-002 -9.680089e-004
      vertex  4.010314e-002 -2.477345e-003 2.914886e-001
      vertex  8.729701e-002 -6.541368e-003 2.439555e-001
    endloop
  endfacet
  facet normal -2.133128e-001 -9.615011e-001 -1.732430e-001
    outer loop
      vertex  -5.252193e-002 -6.965020e-002 -1.102589e-002
      vertex  1.105915e-002 -8.574812e-002 3.090962e-005
      vertex  1.707047e-002 -1.244074e-001 2.071891e-001
    endloop
  endfacet
  facet normal -5.388740e-001 -6.659706e-001 5.158470e-001
    outer loop
      vertex  -8.940536e-002 -9.955022e-003 2.437210e-001
      vertex  1.707047e-002 -1.244074e-001 2.071891e-001
      vertex  -4.935375e-002 -4.764287e-003 2.922619e-001
    endloop
  endfacet
  facet normal 2.169728e-002 -5.713279e-001 8.204350e-001
    outer loop
      vertex  -4.935375e-002 -4.764287e-003 2.922619e-001
      vertex  1.707047e-002 -1.244074e-001 2.071891e-001
      vertex  4.010314e-002 -2.477345e-003 2.914886e-001
    endloop
  endfacet
  facet normal 9.728756e-001 -2.294977e-001 -2.904867e-002
    outer loop
      vertex  6.810974e-002 -5.697972e-002 -1.639054e-004
      vertex  8.723805e-002 2.395671e-002 1.032257e-003
      vertex  8.729701e-002 -6.541368e-003 2.439555e-001
    endloop
  endfacet
  facet normal -3.938077e-001 8.900143e-001 2.297612e-001
    outer loop
      vertex  -5.575239e-002 6.780010e-002 2.057098e-004
      vertex  -8.940536e-002 -9.955022e-003 2.437210e-001
      vertex  -4.935375e-002 -4.764287e-003 2.922619e-001
    endloop
  endfacet
  facet normal 8.527523e-001 -5.207379e-001 4.056692e-002
    outer loop
      vertex  1.707047e-002 -1.244074e-001 2.071891e-001
      vertex  6.810974e-002 -5.697972e-002 -1.639054e-004
      vertex  8.729701e-002 -6.541368e-003 2.439555e-001
    endloop
  endfacet
  facet normal -3.108985e-001 9.207821e-001 2.355894e-001
    outer loop
      vertex  1.307211e-002 9.133872e-002 -9.680089e-004
      vertex  -5.575239e-002 6.780010e-002 2.057098e-004
      vertex  -4.935375e-002 -4.764287e-003 2.922619e-001
    endloop
  endfacet
  facet normal 5.758573e-001 -5.357405e-001 6.175520e-001
    outer loop
      vertex  4.010314e-002 -2.477345e-003 2.914886e-001
      vertex  1.707047e-002 -1.244074e-001 2.071891e-001
      vertex  8.729701e-002 -6.541368e-003 2.439555e-001
    endloop
  endfacet
  facet normal -7.218069e-001 -6.897334e-001 5.711962e-002
    outer loop
      vertex  -8.940536e-002 -9.955022e-003 2.437210e-001
      vertex  -5.252193e-002 -6.965020e-002 -1.102589e-002
      vertex  1.707047e-002 -1.244074e-001 2.071891e-001
    endloop
  endfacet
  facet normal 4.426727e-001 -8.790617e-001 -1.768937e-001
    outer loop
      vertex  1.707047e-002 -1.244074e-001 2.071891e-001
      vertex  1.105915e-002 -8.574812e-002 3.090962e-005
      vertex  6.810974e-002 -5.697972e-002 -1.639054e-004
    endloop
  endfacet
  facet normal -1.615829e-001 7.659920e-002 -9.838819e-001
    outer loop
      vertex  -8.776436e-002 -5.015916e-003 -2.059886e-004
      vertex  -5.575239e-002 6.780010e-002 2.057098e-004
      vertex  -5.252193e-002 -6.965020e-002 -1.102589e-002
    endloop
  endfacet
  facet normal 1.109245e-001 -2.265271e-001 -9.676679e-001
    outer loop
      vertex  -5.252193e-002 -6.965020e-002 -1.102589e-002
      vertex  6.810974e-002 -5.697972e-002 -1.639054e-004
      vertex  1.105915e-002 -8.574812e-002 3.090962e-005
    endloop
  endfacet
  facet normal 9.036953e-002 -6.639476e-003 -9.958862e-001
    outer loop
      vertex  8.723805e-002 2.395671e-002 1.032257e-003
      vertex  6.810974e-002 -5.697972e-002 -1.639054e-004
      vertex  -5.252193e-002 -6.965020e-002 -1.102589e-002
    endloop
  endfacet
  facet normal 6.095313e-002 3.748045e-002 -9.974366e-001
    outer loop
      vertex  -5.252193e-002 -6.965020e-002 -1.102589e-002
      vertex  1.307211e-002 9.133872e-002 -9.680089e-004
      vertex  8.723805e-002 2.395671e-002 1.032257e-003
    endloop
  endfacet
  facet normal -4.445339e-002 8.032408e-002 -9.957771e-001
    outer loop
      vertex  -5.252193e-002 -6.965020e-002 -1.102589e-002
      vertex  -5.575239e-002 6.780010e-002 2.057098e-004
      vertex  1.307211e-002 9.133872e-002 -9.680089e-004
    endloop
  endfacet
endsolid vcg
