solid STL generated by MeshLab
  facet normal -5.344401e-001 7.948613e-001 2.873489e-001
    outer loop
      vertex  -3.382776e-002 7.187790e-002 1.570912e-001
      vertex  -4.963982e-002 1.173117e-001 2.003874e-003
      vertex  -1.359180e-001 5.928572e-002 2.046037e-003
    endloop
  endfacet
  facet normal -9.999827e-001 -5.765988e-003 -1.201493e-003
    outer loop
      vertex  -1.355441e-001 -3.781366e-002 1.568496e-001
      vertex  -1.359964e-001 4.156627e-002 1.523661e-001
      vertex  -1.359180e-001 5.928572e-002 2.046037e-003
    endloop
  endfacet
  facet normal -9.999973e-001 -1.763965e-004 2.304573e-003
    outer loop
      vertex  -1.358969e-001 -6.083310e-002 2.001144e-003
      vertex  -1.355441e-001 -3.781366e-002 1.568496e-001
      vertex  -1.359180e-001 5.928572e-002 2.046037e-003
    endloop
  endfacet
  facet normal 5.082804e-001 8.601464e-001 -4.241695e-002
    outer loop
      vertex  -4.963982e-002 1.173117e-001 2.003874e-003
      vertex  6.911192e-002 5.478517e-002 1.570648e-001
      vertex  1.255098e-001 1.381343e-002 2.037850e-003
    endloop
  endfacet
  facet normal -3.351871e-004 -4.689743e-003 -9.999890e-001
    outer loop
      vertex  9.664696e-002 -7.732334e-002 2.000534e-003
      vertex  -1.879907e-002 -1.247141e-001 2.261483e-003
      vertex  -1.358969e-001 -6.083310e-002 2.001144e-003
    endloop
  endfacet
  facet normal 2.582882e-005 4.012706e-004 -9.999999e-001
    outer loop
      vertex  -1.358969e-001 -6.083310e-002 2.001144e-003
      vertex  1.255098e-001 1.381343e-002 2.037850e-003
      vertex  9.664696e-002 -7.732334e-002 2.000534e-003
    endloop
  endfacet
  facet normal -7.399536e-004 3.736044e-004 -9.999996e-001
    outer loop
      vertex  -1.358969e-001 -6.083310e-002 2.001144e-003
      vertex  -1.359180e-001 5.928572e-002 2.046037e-003
      vertex  -4.963982e-002 1.173117e-001 2.003874e-003
    endloop
  endfacet
  facet normal 1.578669e-004 -6.111690e-005 -1.000000e+000
    outer loop
      vertex  -4.963982e-002 1.173117e-001 2.003874e-003
      vertex  1.255098e-001 1.381343e-002 2.037850e-003
      vertex  -1.358969e-001 -6.083310e-002 2.001144e-003
    endloop
  endfacet
  facet normal -4.673071e-001 -8.556969e-001 2.222765e-001
    outer loop
      vertex  -1.358969e-001 -6.083310e-002 2.001144e-003
      vertex  -1.879907e-002 -1.247141e-001 2.261483e-003
      vertex  -5.162518e-002 -7.741401e-002 1.153398e-001
    endloop
  endfacet
  facet normal 3.738614e-001 -9.097495e-001 1.805089e-001
    outer loop
      vertex  5.757761e-002 -6.265861e-002 1.568281e-001
      vertex  -1.879907e-002 -1.247141e-001 2.261483e-003
      vertex  9.664696e-002 -7.732334e-002 2.000534e-003
    endloop
  endfacet
  facet normal -6.267608e-002 5.592392e-002 9.964659e-001
    outer loop
      vertex  -1.355441e-001 -3.781366e-002 1.568496e-001
      vertex  -3.382776e-002 7.187790e-002 1.570912e-001
      vertex  -1.359964e-001 4.156627e-002 1.523661e-001
    endloop
  endfacet
  facet normal -3.661951e-001 -9.203016e-001 1.376445e-001
    outer loop
      vertex  -1.358969e-001 -6.083310e-002 2.001144e-003
      vertex  -5.162518e-002 -7.741401e-002 1.153398e-001
      vertex  -1.355441e-001 -3.781366e-002 1.568496e-001
    endloop
  endfacet
  facet normal -2.873960e-001 9.512433e-001 1.119808e-001
    outer loop
      vertex  -3.382776e-002 7.187790e-002 1.570912e-001
      vertex  -1.359180e-001 5.928572e-002 2.046037e-003
      vertex  -1.359964e-001 4.156627e-002 1.523661e-001
    endloop
  endfacet
  facet normal -7.685787e-005 -2.007668e-003 9.999980e-001
    outer loop
      vertex  -3.382776e-002 7.187790e-002 1.570912e-001
      vertex  5.757761e-002 -6.265861e-002 1.568281e-001
      vertex  6.911192e-002 5.478517e-002 1.570648e-001
    endloop
  endfacet
  facet normal -1.540795e-004 -2.060133e-003 9.999979e-001
    outer loop
      vertex  -3.382776e-002 7.187790e-002 1.570912e-001
      vertex  -1.355441e-001 -3.781366e-002 1.568496e-001
      vertex  5.757761e-002 -6.265861e-002 1.568281e-001
    endloop
  endfacet
  facet normal 9.277303e-001 -9.184269e-002 3.617755e-001
    outer loop
      vertex  6.911192e-002 5.478517e-002 1.570648e-001
      vertex  5.757761e-002 -6.265861e-002 1.568281e-001
      vertex  1.255098e-001 1.381343e-002 2.037850e-003
    endloop
  endfacet
  facet normal -1.981457e-002 -9.243965e-001 3.809182e-001
    outer loop
      vertex  5.757761e-002 -6.265861e-002 1.568281e-001
      vertex  -5.162518e-002 -7.741401e-002 1.153398e-001
      vertex  -1.879907e-002 -1.247141e-001 2.261483e-003
    endloop
  endfacet
  facet normal -1.050395e-001 -8.169690e-001 5.670348e-001
    outer loop
      vertex  -5.162518e-002 -7.741401e-002 1.153398e-001
      vertex  5.757761e-002 -6.265861e-002 1.568281e-001
      vertex  -1.355441e-001 -3.781366e-002 1.568496e-001
    endloop
  endfacet
  facet normal 9.205390e-001 -2.916390e-001 2.599128e-001
    outer loop
      vertex  9.664696e-002 -7.732334e-002 2.000534e-003
      vertex  1.255098e-001 1.381343e-002 2.037850e-003
      vertex  5.757761e-002 -6.265861e-002 1.568281e-001
    endloop
  endfacet
  facet normal 1.581147e-001 9.518278e-001 2.627233e-001
    outer loop
      vertex  -3.382776e-002 7.187790e-002 1.570912e-001
      vertex  6.911192e-002 5.478517e-002 1.570648e-001
      vertex  -4.963982e-002 1.173117e-001 2.003874e-003
    endloop
  endfacet
endsolid vcg
