solid STL generated by MeshLab
  facet normal -2.361880e-001 -2.420479e-001 -9.410782e-001
    outer loop
      vertex  -5.135185e-003 -6.994650e-002 -2.332922e-003
      vertex  -6.791919e-002 -2.483653e-002 1.821946e-003
      vertex  -4.150211e-002 1.844182e-001 -5.862902e-002
    endloop
  endfacet
  facet normal -1.817849e-001 2.505733e-001 9.508771e-001
    outer loop
      vertex  2.714272e-002 2.192525e-002 1.188144e-001
      vertex  -2.276170e-002 1.844897e-001 6.643520e-002
      vertex  -3.868829e-002 1.269046e-002 1.086626e-001
    endloop
  endfacet
  facet normal -7.289826e-001 2.263686e-001 6.460197e-001
    outer loop
      vertex  -3.868829e-002 1.269046e-002 1.086626e-001
      vertex  -2.276170e-002 1.844897e-001 6.643520e-002
      vertex  -6.752207e-002 1.860772e-001 1.537037e-002
    endloop
  endfacet
  facet normal -5.651933e-001 -8.037528e-001 1.858442e-001
    outer loop
      vertex  -6.791919e-002 -2.483653e-002 1.821946e-003
      vertex  -5.135185e-003 -6.994650e-002 -2.332922e-003
      vertex  1.765677e-002 -6.685466e-002 8.035424e-002
    endloop
  endfacet
  facet normal 7.169052e-001 -7.094953e-002 -6.935510e-001
    outer loop
      vertex  6.888893e-002 -3.498794e-002 4.156052e-003
      vertex  2.121162e-002 1.843433e-001 -6.756407e-002
      vertex  7.354078e-002 1.846052e-001 -1.349961e-002
    endloop
  endfacet
  facet normal 2.068823e-001 -2.631589e-001 -9.423094e-001
    outer loop
      vertex  2.121162e-002 1.843433e-001 -6.756407e-002
      vertex  6.888893e-002 -3.498794e-002 4.156052e-003
      vertex  -5.135185e-003 -6.994650e-002 -2.332922e-003
    endloop
  endfacet
  facet normal 9.034844e-001 8.414692e-002 4.202801e-001
    outer loop
      vertex  2.714272e-002 2.192525e-002 1.188144e-001
      vertex  7.354078e-002 1.846052e-001 -1.349961e-002
      vertex  4.059950e-002 1.844797e-001 5.734006e-002
    endloop
  endfacet
  facet normal 1.336323e-001 3.408573e-001 9.305691e-001
    outer loop
      vertex  2.714272e-002 2.192525e-002 1.188144e-001
      vertex  4.059950e-002 1.844797e-001 5.734006e-002
      vertex  -2.276170e-002 1.844897e-001 6.643520e-002
    endloop
  endfacet
  facet normal -9.429655e-001 2.310772e-002 -3.320874e-001
    outer loop
      vertex  -6.752207e-002 1.860772e-001 1.537037e-002
      vertex  -4.150211e-002 1.844182e-001 -5.862902e-002
      vertex  -6.791919e-002 -2.483653e-002 1.821946e-003
    endloop
  endfacet
  facet normal 8.463685e-001 -2.852708e-001 4.497566e-001
    outer loop
      vertex  6.888893e-002 -3.498794e-002 4.156052e-003
      vertex  2.714272e-002 2.192525e-002 1.188144e-001
      vertex  1.765677e-002 -6.685466e-002 8.035424e-002
    endloop
  endfacet
  facet normal -8.703247e-002 -3.881578e-001 9.174742e-001
    outer loop
      vertex  1.765677e-002 -6.685466e-002 8.035424e-002
      vertex  2.714272e-002 2.192525e-002 1.188144e-001
      vertex  -3.868829e-002 1.269046e-002 1.086626e-001
    endloop
  endfacet
  facet normal -1.374488e-001 -2.327338e-001 -9.627787e-001
    outer loop
      vertex  -4.150211e-002 1.844182e-001 -5.862902e-002
      vertex  2.121162e-002 1.843433e-001 -6.756407e-002
      vertex  -5.135185e-003 -6.994650e-002 -2.332922e-003
    endloop
  endfacet
  facet normal 9.407930e-001 7.318667e-003 3.389027e-001
    outer loop
      vertex  2.714272e-002 2.192525e-002 1.188144e-001
      vertex  6.888893e-002 -3.498794e-002 4.156052e-003
      vertex  7.354078e-002 1.846052e-001 -1.349961e-002
    endloop
  endfacet
  facet normal -9.630406e-001 -1.546077e-002 2.689120e-001
    outer loop
      vertex  -3.868829e-002 1.269046e-002 1.086626e-001
      vertex  -6.752207e-002 1.860772e-001 1.537037e-002
      vertex  -6.791919e-002 -2.483653e-002 1.821946e-003
    endloop
  endfacet
  facet normal 4.315841e-001 -8.980227e-001 -8.538336e-002
    outer loop
      vertex  6.888893e-002 -3.498794e-002 4.156052e-003
      vertex  1.765677e-002 -6.685466e-002 8.035424e-002
      vertex  -5.135185e-003 -6.994650e-002 -2.332922e-003
    endloop
  endfacet
  facet normal -6.735390e-001 -6.201997e-001 4.021163e-001
    outer loop
      vertex  -3.868829e-002 1.269046e-002 1.086626e-001
      vertex  -6.791919e-002 -2.483653e-002 1.821946e-003
      vertex  1.765677e-002 -6.685466e-002 8.035424e-002
    endloop
  endfacet
  facet normal -1.962830e-003 9.999977e-001 8.600911e-004
    outer loop
      vertex  4.059950e-002 1.844797e-001 5.734006e-002
      vertex  7.354078e-002 1.846052e-001 -1.349961e-002
      vertex  -4.150211e-002 1.844182e-001 -5.862902e-002
    endloop
  endfacet
  facet normal 4.352293e-002 9.990273e-001 -7.092865e-003
    outer loop
      vertex  -4.150211e-002 1.844182e-001 -5.862902e-002
      vertex  -6.752207e-002 1.860772e-001 1.537037e-002
      vertex  -2.276170e-002 1.844897e-001 6.643520e-002
    endloop
  endfacet
  facet normal 4.438448e-004 9.999860e-001 -5.274903e-003
    outer loop
      vertex  -4.150211e-002 1.844182e-001 -5.862902e-002
      vertex  7.354078e-002 1.846052e-001 -1.349961e-002
      vertex  2.121162e-002 1.843433e-001 -6.756407e-002
    endloop
  endfacet
  facet normal 7.553048e-005 9.999998e-001 -5.829903e-004
    outer loop
      vertex  -2.276170e-002 1.844897e-001 6.643520e-002
      vertex  4.059950e-002 1.844797e-001 5.734006e-002
      vertex  -4.150211e-002 1.844182e-001 -5.862902e-002
    endloop
  endfacet
endsolid vcg
