solid STL generated by MeshLab
  facet normal -4.494822e-002 8.069838e-002 9.957245e-001
    outer loop
      vertex  4.210939e-002 -4.505554e-002 6.344951e-002
      vertex  -2.904234e-002 8.083694e-002 5.003469e-002
      vertex  -4.286762e-002 -5.876217e-002 6.072440e-002
    endloop
  endfacet
  facet normal 9.174876e-001 5.132552e-002 3.944389e-001
    outer loop
      vertex  7.318304e-002 -1.516853e-002 -1.271860e-002
      vertex  5.616657e-002 8.156545e-002 1.427541e-002
      vertex  4.210939e-002 -4.505554e-002 6.344951e-002
    endloop
  endfacet
  facet normal 2.963253e-001 -7.817425e-001 -5.486984e-001
    outer loop
      vertex  1.850138e-002 -9.094212e-002 1.384219e-002
      vertex  -1.850197e-002 -4.859767e-002 -6.647058e-002
      vertex  5.715428e-002 -2.290484e-002 -6.221746e-002
    endloop
  endfacet
  facet normal -6.285099e-001 -7.564841e-001 -1.808510e-001
    outer loop
      vertex  -1.850197e-002 -4.859767e-002 -6.647058e-002
      vertex  -4.286762e-002 -5.876217e-002 6.072440e-002
      vertex  -7.042876e-002 -1.846709e-002 -1.204345e-002
    endloop
  endfacet
  facet normal 3.668207e-001 3.011127e-001 8.802123e-001
    outer loop
      vertex  4.210939e-002 -4.505554e-002 6.344951e-002
      vertex  5.616657e-002 8.156545e-002 1.427541e-002
      vertex  -2.904234e-002 8.083694e-002 5.003469e-002
    endloop
  endfacet
  facet normal -9.198733e-001 1.593251e-001 3.583973e-001
    outer loop
      vertex  -7.042876e-002 -1.846709e-002 -1.204345e-002
      vertex  -2.904234e-002 8.083694e-002 5.003469e-002
      vertex  -5.270667e-002 8.110615e-002 -1.082256e-002
    endloop
  endfacet
  facet normal -9.300070e-001 1.695216e-001 -3.261124e-001
    outer loop
      vertex  -4.273900e-002 1.967532e-002 -7.118165e-002
      vertex  -7.042876e-002 -1.846709e-002 -1.204345e-002
      vertex  -5.270667e-002 8.110615e-002 -1.082256e-002
    endloop
  endfacet
  facet normal 1.007654e-001 -7.538115e-001 6.493186e-001
    outer loop
      vertex  4.210939e-002 -4.505554e-002 6.344951e-002
      vertex  -4.286762e-002 -5.876217e-002 6.072440e-002
      vertex  1.850138e-002 -9.094212e-002 1.384219e-002
    endloop
  endfacet
  facet normal -5.571669e-001 -8.124645e-001 -1.716579e-001
    outer loop
      vertex  1.850138e-002 -9.094212e-002 1.384219e-002
      vertex  -4.286762e-002 -5.876217e-002 6.072440e-002
      vertex  -1.850197e-002 -4.859767e-002 -6.647058e-002
    endloop
  endfacet
  facet normal 7.083421e-002 -4.361797e-002 -9.965340e-001
    outer loop
      vertex  -4.273900e-002 1.967532e-002 -7.118165e-002
      vertex  5.715428e-002 -2.290484e-002 -6.221746e-002
      vertex  -1.850197e-002 -4.859767e-002 -6.647058e-002
    endloop
  endfacet
  facet normal -4.891417e-001 5.696195e-001 -6.605103e-001
    outer loop
      vertex  -5.270667e-002 8.110615e-002 -1.082256e-002
      vertex  7.182560e-003 8.299068e-002 -5.354839e-002
      vertex  -4.273900e-002 1.967532e-002 -7.118165e-002
    endloop
  endfacet
  facet normal 7.745335e-001 -6.132573e-001 -1.549625e-001
    outer loop
      vertex  5.715428e-002 -2.290484e-002 -6.221746e-002
      vertex  7.318304e-002 -1.516853e-002 -1.271860e-002
      vertex  1.850138e-002 -9.094212e-002 1.384219e-002
    endloop
  endfacet
  facet normal -7.677073e-001 -3.111908e-001 -5.601658e-001
    outer loop
      vertex  -1.850197e-002 -4.859767e-002 -6.647058e-002
      vertex  -7.042876e-002 -1.846709e-002 -1.204345e-002
      vertex  -4.273900e-002 1.967532e-002 -7.118165e-002
    endloop
  endfacet
  facet normal 9.081716e-001 2.528499e-001 -3.336035e-001
    outer loop
      vertex  5.715428e-002 -2.290484e-002 -6.221746e-002
      vertex  5.616657e-002 8.156545e-002 1.427541e-002
      vertex  7.318304e-002 -1.516853e-002 -1.271860e-002
    endloop
  endfacet
  facet normal -9.042830e-001 1.209099e-001 4.094548e-001
    outer loop
      vertex  -2.904234e-002 8.083694e-002 5.003469e-002
      vertex  -7.042876e-002 -1.846709e-002 -1.204345e-002
      vertex  -4.286762e-002 -5.876217e-002 6.072440e-002
    endloop
  endfacet
  facet normal 1.523629e-001 1.518474e-001 -9.765900e-001
    outer loop
      vertex  -4.273900e-002 1.967532e-002 -7.118165e-002
      vertex  7.182560e-003 8.299068e-002 -5.354839e-002
      vertex  5.715428e-002 -2.290484e-002 -6.221746e-002
    endloop
  endfacet
  facet normal 8.244842e-001 -5.531653e-001 1.193056e-001
    outer loop
      vertex  7.318304e-002 -1.516853e-002 -1.271860e-002
      vertex  4.210939e-002 -4.505554e-002 6.344951e-002
      vertex  1.850138e-002 -9.094212e-002 1.384219e-002
    endloop
  endfacet
  facet normal 7.481340e-001 3.965925e-001 -5.319868e-001
    outer loop
      vertex  5.616657e-002 8.156545e-002 1.427541e-002
      vertex  5.715428e-002 -2.290484e-002 -6.221746e-002
      vertex  7.182560e-003 8.299068e-002 -5.354839e-002
    endloop
  endfacet
  facet normal -1.086796e-002 9.995245e-001 2.885293e-002
    outer loop
      vertex  5.616657e-002 8.156545e-002 1.427541e-002
      vertex  7.182560e-003 8.299068e-002 -5.354839e-002
      vertex  -5.270667e-002 8.110615e-002 -1.082256e-002
    endloop
  endfacet
  facet normal -5.753968e-003 9.999613e-001 6.660796e-003
    outer loop
      vertex  -5.270667e-002 8.110615e-002 -1.082256e-002
      vertex  -2.904234e-002 8.083694e-002 5.003469e-002
      vertex  5.616657e-002 8.156545e-002 1.427541e-002
    endloop
  endfacet
endsolid vcg
